<svg id="_x33_0" enable-background="new 0 0 64 64" height="512" viewBox="0 0 64 64" width="512" xmlns="http://www.w3.org/2000/svg"><path d="m61.257 12.843-3.136-3.136c-.13-.13-.267-.253-.409-.369l1.05-2.626c.138-.344.208-.707.208-1.079 0-1.443-1.035-2.65-2.462-2.87l-11.219-1.726c-1.685-.251-3.324.896-3.658 2.561l-.595 2.975-6.596 8.517c-4.16.424-7.944 2.491-10.556 5.834l-4.772 6.11c-2.458.164-4.748 1.189-6.507 2.948l-4.544 4.544c-1.33 1.328-2.061 3.095-2.061 4.974 0 1.162.281 2.28.809 3.279l-3.56 4.557-1.249 1.249c-.645.645-1 1.502-1 2.415s.355 1.77 1 2.414l8.586 8.586c.646.645 1.503 1 2.414 1s1.769-.355 2.414-1l1-1h5.929c1.336 0 2.592-.52 3.536-1.464l13.656-13.657c.944-.944 1.465-2.2 1.465-3.535v-5.929l6-6v.585c0 .564.235 1.108.646 1.494.336.315.744.484 1.106.484.026 0 .053 0 .078-.002h.17v28.024c0 1.103.897 2 2 2h2c1.103 0 2-.897 2-2v-28.036c.561-.026 1.047-.216 1.414-.57.378-.367.586-.861.586-1.394v-4c0-1.103-.897-2-2-2h-4c0-.913-.355-1.77-1-2.414l-2.086-2.086 2.086-2.086 2.843 2.844c1.124 1.123 2.618 1.742 4.207 1.742 3.281 0 5.95-2.669 5.95-5.95 0-1.589-.619-3.083-1.743-4.207zm-17.665-8.853c.128-.636.773-1.071 1.395-.976l11.216 1.726c.444.068.767.444.767.894 0 .116-.021.229-.064.336l-.951 2.379c-.626-.224-1.286-.349-1.955-.349-1.534 0-3.036.622-4.121 1.707l-.641.641-6.152-3.831zm-1.704 12.16 4.102-5.469 1.797 1.119-4.844 4.844c-.348-.175-.696-.347-1.055-.494zm-4.885-1.103 5.205-6.721 2.077 1.293-4.41 5.88c-.934-.239-1.893-.391-2.872-.452zm-22.984 16.349c1.545-1.545 3.6-2.396 5.784-2.396.707 0 1.413.092 2.098.273l3.486.926-5.033 5.033c-.975.976-2.732.976-3.707 0l-3.233-3.232zm-4.973 5.064 4.247 4.247 1.414-1.414-4.293-4.293 1.586-1.586 3.232 3.232c.86.861 2.051 1.354 3.268 1.354s2.408-.493 3.268-1.354l5.111-5.111c.436-.434 1.104-.617 1.684-.493l.155.042c.742.232 1.282.926 1.282 1.745 0 .488-.19.948-.535 1.293l-11.758 11.757c-.713.712-1.699 1.121-2.707 1.121s-1.994-.409-2.707-1.121l-2.818-2.818c-.952-.952-1.475-2.216-1.475-3.561 0-1.117.379-2.167 1.046-3.04zm4.954 24.125c-.535.535-1.465.535-2 0l-8.586-8.585c-.268-.267-.414-.622-.414-1s.146-.733.414-1l.586-.586 10.586 10.586zm-8.667-12.666 2.708-3.466c.007.007.013.015.02.022l2.818 2.818c1.085 1.085 2.587 1.707 4.121 1.707s3.036-.622 4.121-1.707l11.758-11.758c.723-.723 1.121-1.684 1.121-2.706 0-1.815-1.27-3.339-2.967-3.731l-6.62-1.757c-.286-.076-.578-.12-.87-.171l3.916-5.014c.018-.023.039-.042.057-.065 5.551.59 10.235 4.329 12.013 9.662l1.326 3.978-22.855 22.855zm33.667-5.576c0 .79-.32 1.563-.879 2.121l-13.656 13.658c-.567.566-1.32.878-2.122.878h-3.929l20.586-20.586zm9.768-11.365c.012 0 .023-.001.035-.001s.023 0 .034.001zm2.232 30.022v-28.025h2v28.025zm4-34 .027 3.952s-.034.03-.196.024l-5.831.002v-2.563l1-1c.128-.128.236-.271.341-.415zm-6-2c0 .378-.146.733-.414 1l-8.149 8.149-1.01-3.03c-1.866-5.599-6.544-9.658-12.216-10.792 2.422-2.127 5.518-3.327 8.819-3.327 3.583 0 6.951 1.396 9.484 3.929l3.072 3.071c.268.267.414.622.414 1zm-2.521-5.893c-.557-.516-1.14-.994-1.755-1.416l2.276-2.277 1.586 1.586zm7.778.736-5.843-5.843 2.879-2.879c.713-.712 1.699-1.121 2.707-1.121s1.994.409 2.707 1.121l3.136 3.137c.746.745 1.157 1.737 1.157 2.792 0 .726-.211 1.397-.554 1.982l-3.739-3.74-1.414 1.414 3.739 3.74c-.585.343-1.257.554-1.982.554-1.055 0-2.047-.411-2.793-1.157z"/></svg>